<svg width="21" height="28" viewBox="0 0 21 28" fill="none" xmlns="http://www.w3.org/2000/svg">
<g id="Group 23">
<path id="Vector" d="M21 24.5V7.875L13.125 0H3.5C2.57174 0 1.6815 0.368749 1.02513 1.02513C0.368749 1.6815 0 2.57174 0 3.5V24.5C0 25.4283 0.368749 26.3185 1.02513 26.9749C1.6815 27.6313 2.57174 28 3.5 28H17.5C18.4283 28 19.3185 27.6313 19.9749 26.9749C20.6313 26.3185 21 25.4283 21 24.5ZM13.125 5.25C13.125 5.94619 13.4016 6.61387 13.8938 7.10616C14.3861 7.59844 15.0538 7.875 15.75 7.875H19.25V24.5C19.25 24.9641 19.0656 25.4092 18.7374 25.7374C18.4092 26.0656 17.9641 26.25 17.5 26.25H3.5C3.03587 26.25 2.59075 26.0656 2.26256 25.7374C1.93437 25.4092 1.75 24.9641 1.75 24.5V3.5C1.75 3.03587 1.93437 2.59075 2.26256 2.26256C2.59075 1.93437 3.03587 1.75 3.5 1.75H13.125V5.25Z" fill="#FF8383"/>
<path id="Vector_2" d="M4.55513 24.6523C4.21404 24.5159 3.93924 24.2523 3.78863 23.9173C3.44738 23.2383 3.56113 22.5593 3.92863 21.9888C4.27513 21.4515 4.84913 20.9948 5.49838 20.6115C6.32077 20.1451 7.19009 19.7668 8.09188 19.4828C8.79222 18.2238 9.41293 16.9222 9.95038 15.5855C9.62904 14.8554 9.3771 14.0966 9.19788 13.3193C9.04738 12.6193 8.98963 11.9263 9.11738 11.3313C9.24863 10.7118 9.59688 10.1553 10.2549 9.89102C10.5909 9.75627 10.9549 9.68102 11.3084 9.75627C11.4862 9.79413 11.6534 9.87109 11.7977 9.98157C11.9421 10.092 12.0601 10.2333 12.1431 10.395C12.2971 10.682 12.3531 11.018 12.3654 11.3365C12.3776 11.6655 12.3444 12.0295 12.2831 12.411C12.1361 13.3035 11.8106 14.3955 11.3731 15.5505C11.8559 16.5831 12.4299 17.5705 13.0881 18.501C13.8671 18.4395 14.6505 18.4689 15.4226 18.5885C16.0596 18.704 16.7071 18.9298 17.1026 19.4023C17.3126 19.6543 17.4404 19.9623 17.4526 20.3088C17.4649 20.6448 17.3704 20.9773 17.2111 21.294C17.0732 21.5876 16.8593 21.8389 16.5916 22.022C16.327 22.1946 16.0147 22.2791 15.6991 22.2635C15.1199 22.239 14.5546 21.9205 14.0664 21.5338C13.4727 21.0429 12.9377 20.485 12.4721 19.8713C11.2887 20.0056 10.1193 20.2433 8.97738 20.5818C8.45444 21.5092 7.85751 22.3929 7.19238 23.2243C6.68138 23.8368 6.12663 24.3723 5.57013 24.6015C5.25039 24.7462 4.88771 24.7643 4.55513 24.6523ZM6.96838 21.3255C6.67788 21.4585 6.40838 21.5985 6.16513 21.742C5.59113 22.0815 5.21838 22.4123 5.03288 22.6993C4.86838 22.953 4.86488 23.1368 4.96288 23.331C4.98038 23.3695 4.99788 23.394 5.00838 23.408C5.02926 23.4025 5.04973 23.3954 5.06963 23.387C5.30938 23.289 5.69088 22.9758 6.18088 22.386C6.45956 22.0448 6.72234 21.691 6.96838 21.3255ZM9.83838 18.998C10.4228 18.8616 11.0124 18.749 11.6059 18.6603C11.2872 18.1726 10.9895 17.6717 10.7134 17.1588C10.4389 17.7793 10.1471 18.392 9.83838 18.9963V18.998ZM14.1189 19.7855C14.3814 20.0708 14.6369 20.3105 14.8801 20.503C15.3001 20.8355 15.5924 20.9458 15.7516 20.951C15.7943 20.9566 15.8375 20.9473 15.8741 20.9248C15.9469 20.8673 16.0036 20.7919 16.0386 20.706C16.1009 20.5994 16.1363 20.4793 16.1419 20.356C16.1409 20.3149 16.1247 20.2756 16.0964 20.2458C16.0054 20.1373 15.7464 19.9798 15.1899 19.88C14.8359 19.8208 14.4778 19.7898 14.1189 19.7873V19.7855ZM10.6364 13.65C10.7837 13.1749 10.9006 12.691 10.9864 12.201C11.0406 11.872 11.0616 11.6008 11.0529 11.3873C11.0534 11.2695 11.0344 11.1524 10.9969 11.0408C10.9093 11.0516 10.8239 11.0752 10.7431 11.1108C10.5909 11.172 10.4666 11.2963 10.4001 11.606C10.3301 11.942 10.3476 12.4268 10.4806 13.0445C10.5226 13.2388 10.5751 13.4418 10.6381 13.65H10.6364Z" fill="#FF8383"/>
</g>
</svg>
