<svg width="66" height="61" viewBox="0 0 66 61" fill="none" xmlns="http://www.w3.org/2000/svg">
<path id="Vector" fill-rule="evenodd" clip-rule="evenodd" d="M33 0C27.556 0.01683 22.2976 1.95255 18.1748 5.45747C15.015 8.14147 12.7256 11.6388 12.1357 15.1483C5.22225 16.653 0 22.5903 0 29.7599C0 38.0884 7.0455 44.7333 15.5966 44.7333H30.9375V23.2085L22.0853 31.9396C21.698 32.3214 21.1727 32.5359 20.625 32.5359C20.0773 32.5359 19.552 32.3214 19.1647 31.9396C18.7775 31.5578 18.5599 31.04 18.5599 30.5C18.5599 29.96 18.7775 29.4422 19.1647 29.0604L31.5397 16.8604C31.7313 16.671 31.9589 16.5208 32.2095 16.4183C32.4601 16.3158 32.7287 16.263 33 16.263C33.2713 16.263 33.5399 16.3158 33.7905 16.4183C34.0411 16.5208 34.2687 16.671 34.4603 16.8604L46.8353 29.0604C47.2225 29.4422 47.4401 29.96 47.4401 30.5C47.4401 31.04 47.2225 31.5578 46.8353 31.9396C46.448 32.3214 45.9227 32.5359 45.375 32.5359C44.8273 32.5359 44.302 32.3214 43.9147 31.9396L35.0625 23.2085V44.7333H52.338C59.8207 44.7333 66 38.918 66 31.6102C66 24.9571 60.8768 19.5363 54.3098 18.6213C53.3074 8.12927 44.0962 0 33 0ZM30.9375 58.9667V44.7333H35.0625V58.9667C35.0625 59.5059 34.8452 60.0231 34.4584 60.4044C34.0716 60.7858 33.547 61 33 61C32.453 61 31.9284 60.7858 31.5416 60.4044C31.1548 60.0231 30.9375 59.5059 30.9375 58.9667Z" fill="#FF9853"/>
</svg>
